<svg xmlns="http://www.w3.org/2000/svg" width="100" height="26" fill="none" viewBox="0 0 100 26">
  <g clip-path="url(#clip0)">
    <path fill="#083B87" d="M14.8 11.86a5 5 0 012.35-4.15 5 5 0 00-4-2.16c-1.68-.17-3.3 1-4.16 1-.86 0-2.19-1-3.61-1A5.31 5.31 0 00.92 8.33C-1 11.68.43 16.6 2.28 19.3c.93 1.33 2 2.81 3.43 2.76 1.43-.05 1.9-.89 3.58-.89 1.68 0 2.14.89 3.59.85 1.45-.04 2.42-1.33 3.32-2.66a11.174 11.174 0 001.52-3.1 4.77 4.77 0 01-2.92-4.4zM12.07 3.77A4.85 4.85 0 0013.18.28 5 5 0 0010 1.94 4.66 4.66 0 008.83 5.3a4.08 4.08 0 003.24-1.53zM32.33 18.7H27.6l-1.14 3.36h-2l4.48-12.42H31l4.49 12.42h-2l-1.16-3.36zm-4.24-1.55h3.75L30 11.71l-1.91 5.44zM45.19 17.53c0 2.82-1.51 4.62-3.78 4.62a3.06 3.06 0 01-2.85-1.58v4.48h-1.9V13h1.8v1.5a3.231 3.231 0 012.89-1.6c2.32.01 3.84 1.83 3.84 4.63zm-1.91 0c0-1.83-1-3-2.39-3-1.39 0-2.38 1.24-2.38 3s1 3 2.38 3 2.39-1.15 2.39-3zM55.15 17.53c0 2.82-1.5 4.62-3.78 4.62a3 3 0 01-2.84-1.58h-.05v4.48h-1.86V13h1.8v1.5a3.21 3.21 0 012.88-1.6c2.34.01 3.85 1.83 3.85 4.63zm-1.91 0c0-1.83-.94-3-2.39-3-1.45 0-2.37 1.24-2.37 3s1 3 2.37 3 2.39-1.2 2.39-3zM61.74 18.6c.14 1.23 1.33 2 3 2s2.69-.81 2.69-1.92c0-1-.68-1.54-2.29-1.94l-1.64-.34c-2.28-.55-3.34-1.62-3.34-3.35 0-2.14 1.87-3.62 4.52-3.62 2.65 0 4.43 1.48 4.49 3.62h-1.88c-.11-1.24-1.14-2-2.63-2s-2.53.76-2.53 1.86c0 .88.66 1.39 2.26 1.79l1.37.34c2.55.6 3.6 1.62 3.6 3.44 0 2.32-1.85 3.78-4.79 3.78-2.75 0-4.61-1.42-4.73-3.67l1.9.01zM73.37 10.86V13h1.73v1.47h-1.73v5c0 .77.35 1.13 1.11 1.13.203.015.407.015.61 0V22a4.488 4.488 0 01-1 .09c-1.84 0-2.55-.69-2.55-2.44v-5.17h-1.35V13h1.32v-2.14h1.86zM76.09 17.53c0-2.85 1.68-4.64 4.3-4.64s4.29 1.79 4.29 4.64c0 2.85-1.68 4.64-4.29 4.64-2.61 0-4.3-1.78-4.3-4.64zm6.7 0c0-2-.9-3.1-2.4-3.1S78 15.59 78 17.53c0 1.94.89 3.11 2.4 3.11 1.51 0 2.4-1.15 2.4-3.11h-.01zM86.21 13H88v1.54a2.16 2.16 0 012.18-1.64c.212-.002.423.022.63.07v1.74a2.602 2.602 0 00-.83-.11 1.87 1.87 0 00-2 1.79 2.805 2.805 0 000 .29v5.37h-1.77V13zM99.41 19.4c-.25 1.64-1.85 2.77-3.9 2.77-2.63 0-4.26-1.76-4.26-4.59s1.64-4.69 4.19-4.69c2.55 0 4.08 1.72 4.08 4.47V18h-6.4v.11a2.37 2.37 0 002.14 2.56h.3a2 2 0 002.09-1.27h1.76zm-6.28-2.7h4.53a2.19 2.19 0 00-2.06-2.3h-.16a2.29 2.29 0 00-2.31 2.28v.02zM27.85.29a2.65 2.65 0 012.83 2.45 3.01 3.01 0 010 .52c0 1.91-1 3-2.81 3H25.7v-6l2.15.03zm-1.22 5.13h1.12a1.89 1.89 0 002-1.76c.01-.13.01-.26 0-.39a1.88 1.88 0 00-1.61-2.12c-.12-.01-.24-.01-.36 0h-1.15v4.27zM31.71 4A2.154 2.154 0 1136 4a2.135 2.135 0 11-4.25.41 2.791 2.791 0 01-.04-.41zM35 4c0-1-.44-1.55-1.21-1.55S32.63 3 32.63 4s.43 1.55 1.2 1.55S35 5 35 4zM41.6 6.26h-.92l-.93-3.32h-.07l-.93 3.32h-.91l-1.24-4.5h.9l.81 3.43h.06l.93-3.43h.85l.93 3.43h.07L42 1.76h.89l-1.29 4.5zM43.88 1.76h.86v.71h.06a1.35 1.35 0 011.35-.8A1.47 1.47 0 0147.72 3c.01.11.01.22 0 .33v2.93h-.89V3.57c0-.72-.32-1.08-1-1.08a1 1 0 00-1.08 1 .855.855 0 000 .16v2.61h-.89l.02-4.5zM49.12 0H50v6.26h-.89L49.12 0zM51.25 4a2.128 2.128 0 012.745-2.262A2.13 2.13 0 0155.49 3.59c.02.136.02.274 0 .41a2.132 2.132 0 01-2.745 2.262A2.13 2.13 0 0151.25 4.41a1.408 1.408 0 010-.41zm3.33 0c0-1-.44-1.55-1.21-1.55S52.16 3 52.16 4s.44 1.55 1.21 1.55S54.58 5 54.58 4zM56.43 5c0-.81.6-1.28 1.67-1.35l1.22-.07v-.4c0-.47-.31-.74-.92-.74-.61 0-.84.18-.94.5h-.86c.09-.77.82-1.27 1.84-1.27s1.77.56 1.77 1.51v3.08h-.86v-.63h-.07a1.49 1.49 0 01-1.35.7 1.35 1.35 0 01-1.49-1.21.562.562 0 01-.01-.12zm2.89-.39v-.38l-1.1.07c-.62 0-.9.25-.9.65s.35.64.84.64a1.06 1.06 0 001.16-1v.02zM61.38 4c0-1.43.73-2.33 1.87-2.33a1.5 1.5 0 011.38.79h.06V0h.89v6.26h-.85v-.71h-.07a1.55 1.55 0 01-1.41.78c-1.15.01-1.87-.9-1.87-2.33zm.91 0c0 1 .45 1.53 1.21 1.53S64.71 5 64.71 4s-.47-1.53-1.21-1.53-1.21.59-1.21 1.53zM69.26 4a2.135 2.135 0 014.25-.41c.01.137.01.274 0 .41a2.136 2.136 0 01-4.25.41 2.805 2.805 0 010-.41zm3.33 0c0-1-.44-1.55-1.21-1.55S70.18 3 70.18 4s.43 1.55 1.2 1.55S72.59 5 72.59 4zM74.7 1.76h.85v.71h.07a1.35 1.35 0 011.38-.8A1.46 1.46 0 0178.53 3c.015.11.015.22 0 .33v2.93h-.89V3.57c0-.72-.31-1.08-1-1.08a1 1 0 00-1.08 1 .91.91 0 000 .16v2.61h-.86v-4.5zM83.54.64v1.14h1v.75h-1v2.31c0 .47.2.68.64.68h.34v.74c-.16.01-.32.01-.48 0-1 0-1.39-.35-1.39-1.22V2.53h-.71v-.75h.71V.64h.89zM85.73 0h.88v2.48h.07a1.42 1.42 0 011.38-.81 1.49 1.49 0 011.56 1.41c.005.09.005.18 0 .27v2.91h-.89V3.57c0-.72-.34-1.08-1-1.08a1.05 1.05 0 00-1.14 1v2.77h-.89L85.73 0zM94.79 5a1.84 1.84 0 01-2 1.31 2 2 0 01-2.1-2 1.93 1.93 0 010-.34 2.07 2.07 0 011.78-2.33h.29c1.26 0 2 .86 2 2.27v.31h-3.1a1.2 1.2 0 001.09 1.29h.11A1.06 1.06 0 0093.93 5h.86zm-3.13-1.41h2.28a1.09 1.09 0 00-1-1.16h-.1a1.15 1.15 0 00-1.17 1.13l-.01.03z"/>
  </g>
  <defs>
    <clipPath id="clip0">
      <path fill="#fff" d="M0 0h99.52v25.05H0z"/>
    </clipPath>
  </defs>
</svg>
