<svg xmlns="http://www.w3.org/2000/svg" width="116" height="28" fill="none" viewBox="0 0 116 28">
  <g clip-path="url(#clip0)">
    <path fill="#083B87" stroke="#083B87" stroke-miterlimit="10" stroke-width=".2" d="M37.45 3.48a2.691 2.691 0 01-.75 2 2.91 2.91 0 01-2.2.89 3 3 0 01-2.21-.9 3.001 3.001 0 01-.91-2.24A3 3 0 0132.29 1 3 3 0 0134.5.1a3 3 0 011.23.25c.36.148.682.378.94.67l-.53.53A2 2 0 0034.5.84a2.28 2.28 0 00-1.64.66 2.3 2.3 0 00-.69 1.73A2.291 2.291 0 0032.86 5a2.38 2.38 0 003.31 0 1.9 1.9 0 00.51-1.21H34.5V3h2.9c.032.158.049.319.05.48zM42.06 1h-2.74v1.9h2.47v.72h-2.47V5.5h2.74v.73h-3.51v-6h3.51V1zM45.31 6.23h-.78V1h-1.67V.23H47V1h-1.69v5.23zM50 6.23v-6h.77v6H50zM54.16 6.23h-.78V1h-1.67V.23h4.12V1h-1.67v5.23zM63.64 5.46a3.11 3.11 0 01-4.4 0 3.09 3.09 0 01-.89-2.23A3.08 3.08 0 0159.24 1a3.1 3.1 0 014.39 0 3.08 3.08 0 01.89 2.22 3.08 3.08 0 01-.88 2.24zM59.81 5a2.18 2.18 0 001.63.67A2.21 2.21 0 0063.07 5a2.381 2.381 0 00.66-1.73 2.37 2.37 0 00-.66-1.72 2.21 2.21 0 00-1.63-.71 2.18 2.18 0 00-1.63.67 2.34 2.34 0 00-.67 1.72A2.34 2.34 0 0059.81 5zM65.6 6.23v-6h.94l2.92 4.67V.23h.77v6h-.81l-3-4.89v4.89h-.82z"/>
    <path fill="#083B87" d="M58.16 15a4.25 4.25 0 104.27 4.25A4.188 4.188 0 0058.16 15zm0 6.83a2.46 2.46 0 01-2.4-2.58 2.412 2.412 0 013.373-2.424 2.41 2.41 0 011.427 2.424 2.46 2.46 0 01-2.4 2.57v.01zM48.85 15a4.25 4.25 0 104.27 4.25A4.188 4.188 0 0048.85 15zm0 6.83a2.46 2.46 0 01-2.4-2.58 2.412 2.412 0 013.373-2.424 2.41 2.41 0 011.427 2.424 2.46 2.46 0 01-2.4 2.57v.01zm-11.08-5.54v1.81h4.32a3.82 3.82 0 01-1 2.27 4.44 4.44 0 01-3.34 1.32 4.8 4.8 0 010-9.6A4.65 4.65 0 0141 13.37l1.3-1.27a6.31 6.31 0 00-4.53-1.82 6.7 6.7 0 00-6.7 6.61 6.69 6.69 0 006.7 6.6 6 6 0 004.61-1.85 6 6 0 001.56-4.22 5.458 5.458 0 00-.1-1.13h-6.07zm45.31 1.4A4 4 0 0079.44 15a4 4 0 00-4 4.25 4.16 4.16 0 004.22 4.25 4.23 4.23 0 003.54-1.88l-1.45-1a2.42 2.42 0 01-2.09 1.18 2.16 2.16 0 01-2.06-1.29l5.68-2.35-.2-.47zm-5.8 1.42a2.33 2.33 0 012.22-2.48 1.65 1.65 0 011.58.9l-3.8 1.58zm-4.62 4.12h1.86v-12.5h-1.86v12.5zm-3.07-7.29h-.06a2.94 2.94 0 00-2.24-.94 4.25 4.25 0 000 8.5 2.91 2.91 0 002.24-1h.06v.61c0 1.63-.87 2.49-2.27 2.49a2.35 2.35 0 01-2.14-1.51l-1.63.68a4.07 4.07 0 003.77 2.51c2.19 0 4.05-1.29 4.05-4.43v-7.61h-1.78v.7zm-2.14 5.88a2.439 2.439 0 01-2.37-2.56 2.47 2.47 0 012.37-2.6 2.4 2.4 0 012.27 2.6 2.378 2.378 0 01-2.27 2.56zm24.38-11.09h-4.47v12.5h1.87V18.5h2.6a4 4 0 004.1-3.88 4 4 0 00-4.1-3.89zm0 6h-2.6v-4.26h2.65a2.15 2.15 0 110 4.29l-.05-.03zM103.41 15a3.507 3.507 0 00-3.33 1.92l1.66.69a1.768 1.768 0 011.71-.92 1.804 1.804 0 011.792.931c.114.21.184.441.208.679v.13a4.18 4.18 0 00-2-.48c-1.78 0-3.6 1-3.6 2.81a2.89 2.89 0 003.1 2.75 2.615 2.615 0 002.38-1.22h.07v1h1.8v-4.87c.01-2.22-1.65-3.42-3.79-3.42zm-.22 6.85c-.61 0-1.47-.3-1.47-1.06 0-1 1.07-1.33 2-1.33a3.26 3.26 0 011.71.42 2.256 2.256 0 01-2.24 1.93v.04zm10.58-6.57l-2.14 5.42h-.06l-2.22-5.42h-2l3.33 7.57-1.91 4.15h1.94l5.14-11.79-2.08.07zM97 23.23h1.87v-12.5H97v12.5z"/>
    <path fill="#5BC9F4" d="M.46.78A2 2 0 000 2.19v22.09a2 2 0 00.46 1.41l.08.07 12.37-12.38v-.29L.54.71.46.78z"/>
    <path fill="url(#paint0_linear)" d="M17 17.51l-4.13-4.13v-.29L17 9h.1l4.9 2.79c1.4.8 1.4 2.09 0 2.89l-4.88 2.77-.12.06z"/>
    <path fill="url(#paint1_linear)" d="M17.14 17.45l-4.23-4.22L.46 25.69a1.65 1.65 0 002.08.06l14.6-8.3z"/>
    <path fill="url(#paint2_linear)" d="M17.14 9L2.54.72A1.62 1.62 0 00.46.78l12.45 12.45L17.14 9z"/>
  </g>
  <defs>
    <linearGradient id="paint0_linear" x1="21.12" x2="-3.06" y1="13.23" y2="13.23" gradientUnits="userSpaceOnUse">
      <stop stop-color="#FEE000"/>
      <stop offset=".42" stop-color="#FBBC0E"/>
      <stop offset=".78" stop-color="#FAA418"/>
      <stop offset="1" stop-color="#F99B1C"/>
    </linearGradient>
    <linearGradient id="paint1_linear" x1="14.84" x2="-7.9" y1="15.53" y2="38.27" gradientUnits="userSpaceOnUse">
      <stop stop-color="#EF4547"/>
      <stop offset="1" stop-color="#C6186D"/>
    </linearGradient>
    <linearGradient id="paint2_linear" x1="-8" x2="10.57" y1="-11.9" y2="6.67" gradientUnits="userSpaceOnUse">
      <stop stop-color="#279E6F"/>
      <stop offset=".04" stop-color="#2BA06F"/>
      <stop offset=".46" stop-color="#53B26C"/>
      <stop offset=".8" stop-color="#6BBD6A"/>
      <stop offset="1" stop-color="#74C169"/>
    </linearGradient>
    <clipPath id="clip0">
      <path fill="#fff" d="M0 0h115.85v27.31H0z"/>
    </clipPath>
  </defs>
</svg>
